<?xml version="1.0" standalone="no"?>
<!DOCTYPE svg PUBLIC "-//W3C//DTD SVG 20010904//EN"
 "http://www.w3.org/TR/2001/REC-SVG-20010904/DTD/svg10.dtd">
<svg version="1.0" xmlns="http://www.w3.org/2000/svg"
 width="1080.000000pt" height="1080.000000pt" viewBox="0 0 1080.000000 1080.000000"
 preserveAspectRatio="xMidYMid meet">
<metadata>
Created by potrace 1.14, written by Peter Selinger 2001-2017
</metadata>
<g transform="translate(0.000000,1080.000000) scale(0.100000,-0.100000)"
fill="#000000" stroke="none">
<path d="M5310 8108 c-311 -247 -575 -457 -587 -465 -21 -14 -44 -4 -430 197
-225 117 -411 214 -414 216 -3 1 -175 -179 -382 -400 -314 -337 -380 -403
-399 -400 -62 10 -1050 115 -1053 112 -2 -2 96 -395 219 -873 l223 -870 7
-657 7 -658 -28 0 c-23 0 -61 33 -213 185 l-185 185 -345 0 -345 0 -58 100
-58 101 -156 -3 -157 -3 -73 -125 c-40 -69 -73 -132 -72 -140 0 -8 33 -71 73
-140 l73 -125 156 -3 155 -2 54 92 53 93 320 3 320 2 185 -185 c164 -164 188
-185 217 -185 18 0 33 -3 33 -7 0 -3 -60 -109 -132 -235 l-133 -228 -274 2
-274 3 -46 82 -46 83 -148 -3 -149 -2 -70 -120 c-67 -114 -69 -120 -55 -145 8
-14 40 -69 71 -122 l57 -98 147 0 147 0 25 46 c13 26 37 67 52 91 l28 43 242
-2 243 -3 116 -200 117 -200 -176 -177 -177 -178 -320 0 -320 0 -53 95 -53 96
-156 -3 -155 -3 -78 -134 -77 -133 76 -134 76 -134 160 3 159 2 56 97 55 98
345 0 345 0 183 183 c175 174 184 181 198 162 8 -11 110 -185 227 -387 l212
-368 771 0 772 0 386 669 c212 367 386 671 386 675 0 4 -81 148 -181 321 -100
172 -181 317 -181 322 0 4 41 23 91 40 258 92 559 107 831 41 101 -24 190 -56
190 -68 0 -5 -82 -149 -181 -322 -100 -172 -184 -319 -186 -325 -3 -7 169
-314 382 -683 l387 -670 772 0 771 0 212 368 c117 202 219 376 227 387 14 19
23 12 198 -163 l183 -182 345 0 345 0 55 -98 56 -97 159 -2 160 -3 76 134 76
134 -77 133 -78 134 -155 3 -156 3 -53 -96 -53 -95 -320 0 -320 0 -177 178
-176 177 104 180 c58 99 112 190 120 203 14 22 17 22 254 22 l240 0 28 -44
c15 -24 39 -64 52 -90 l25 -46 148 2 149 3 70 120 c66 114 69 121 55 145 -8
14 -40 69 -71 123 l-57 97 -147 0 -147 0 -46 -83 -46 -82 -274 -3 -274 -2
-133 228 c-72 126 -132 232 -132 235 0 4 15 7 33 7 29 0 53 21 217 185 l185
185 319 -2 320 -3 54 -93 54 -92 155 2 156 3 73 125 c40 69 73 132 73 140 1 8
-32 71 -72 140 l-73 125 -157 3 -156 3 -58 -101 -58 -100 -345 0 -345 0 -185
-185 -185 -185 -49 0 -48 0 6 31 c3 17 6 246 6 508 l0 476 456 575 456 575
-466 9 c-256 5 -466 12 -466 16 0 4 144 317 321 695 176 378 318 690 314 693
-5 5 -1233 -21 -1595 -34 l-155 -6 -618 356 c-340 196 -624 356 -630 355 -7 0
-266 -203 -577 -451z m1957 -2379 l623 -342 0 -111 c0 -61 3 -168 7 -238 l6
-128 -774 0 -774 -1 -169 -295 c-94 -162 -173 -297 -177 -300 -4 -2 -49 10
-100 27 -200 67 -453 94 -659 70 -120 -14 -298 -58 -385 -95 -49 -20 -62 -22
-70 -11 -6 7 -87 146 -180 309 l-170 295 -772 1 c-424 0 -774 3 -776 8 -3 4
-8 142 -12 306 l-7 299 543 -8 542 -7 208 -139 c115 -76 212 -139 216 -139 5
0 121 116 259 257 l252 258 250 -125 c138 -68 253 -122 255 -120 2 3 69 115
147 250 79 135 148 253 155 262 10 15 37 3 270 -122 142 -77 261 -140 264
-140 3 0 92 72 196 160 105 87 194 159 199 160 5 0 290 -154 633 -341z m413
-1489 c0 -7 -188 -10 -545 -10 -357 0 -545 3 -545 10 0 7 188 10 545 10 357 0
545 -3 545 -10z m-3470 -30 c0 -7 -188 -10 -545 -10 -357 0 -545 3 -545 10 0
7 188 10 545 10 357 0 545 -3 545 -10z m3710 -430 c0 -7 -268 -10 -785 -10
-517 0 -785 3 -785 10 0 7 268 10 785 10 517 0 785 -3 785 -10z m-3470 -25 c0
-13 -94 -15 -785 -15 -432 0 -785 4 -785 8 0 5 3 12 7 15 3 4 357 7 785 7 685
0 778 -2 778 -15z m3230 -435 c0 -7 -188 -10 -545 -10 -357 0 -545 3 -545 10
0 7 188 10 545 10 357 0 545 -3 545 -10z m-3470 -25 c0 -13 -64 -15 -542 -13
-422 2 -542 6 -546 16 -3 9 110 12 542 12 480 0 546 -2 546 -15z m3310 -430
c0 -13 -49 -15 -384 -15 -212 0 -387 4 -390 9 -3 4 -3 11 1 15 3 3 179 6 390
6 334 0 383 -2 383 -15z m-6281 -76 c23 -39 41 -76 41 -82 0 -7 -17 -41 -38
-77 l-38 -65 -90 -3 -90 -3 -16 33 c-9 18 -28 51 -42 73 l-25 41 45 77 45 77
83 0 84 0 41 -71z m8574 -5 l44 -76 -41 -74 -41 -74 -89 2 -90 3 -38 65 c-21
36 -38 70 -38 77 0 6 18 43 41 82 l41 71 84 0 83 0 44 -76z m-5753 56 c0 -6
-137 -10 -390 -10 -253 0 -390 4 -390 10 0 6 137 10 390 10 253 0 390 -4 390
-10z"/>
<path d="M5087 2706 c-147 -250 -267 -459 -267 -465 0 -8 148 -11 513 -10 310
0 504 4 492 9 -11 5 -175 41 -365 80 -190 39 -347 74 -350 77 -3 2 52 174 122
381 70 207 126 378 124 379 -1 2 -123 -201 -269 -451z"/>
</g>
</svg>
